PathFileType	4	(X/Y/Z)	paretic_pre_fa151403.trc
DataRate	CameraRate	NumFrames	NumMarkers	Units	OrigDataRate	OrigDataStartFrame	OrigNumFrames
58.68	58.68	11	11	cm	58.68	1	1017
Frame#	Time	NOSE			LEFT_SHOULDER			RIGHT_SHOULDER			LEFT_ELBOW			RIGHT_ELBOW			LEFT_WRIST			RIGHT_WRIST			LEFT_HIP			RIGHT_HIP			LEFT_INDEX			RIGHT_INDEX		
		X1	Y1	Z1	X2	Y2	Z2	X3	Y3	Z3	X4	Y4	Z4	X5	Y5	Z5	X6	Y6	Z6	X7	Y7	Z7	X8	Y8	Z8	X9	Y9	Z9	X10	Y10	Z10	X11	Y11	Z11
30	0.5112827715355805	8.603199	-59.587118	-25.995220	11.479909	-48.949570	12.721003	-25.186990	-59.517358	1.560648	22.628926	-21.824405	12.809216	-40.321334	-22.181221	-11.758723	37.112939	-6.969996	4.310967	-33.174158	-11.976085	-32.856734	10.301160	-2.188362	11.043100	-9.888732	1.569793	-10.566149	37.915937	-5.795658	-0.708911	-21.150457	-20.402675	-43.894681
31	0.5283255305867666	8.934205	-59.593625	-27.097133	11.982382	-48.954789	11.846207	-24.446042	-59.500965	0.648614	23.227359	-21.984659	12.359538	-39.475123	-22.161217	-12.340291	37.458423	-6.981601	4.231729	-32.388625	-11.987433	-32.928519	10.280684	-2.190585	11.082902	-9.867385	1.573848	-10.612018	38.174359	-5.799259	-0.719545	-20.283066	-20.456180	-43.877215
32	0.5453682896379526	8.979953	-59.496461	-28.599900	12.027710	-49.009659	9.768792	-24.342103	-59.508053	-1.134179	23.213304	-22.058873	9.377016	-39.465635	-22.193642	-14.278111	37.326702	-7.284214	-0.187466	-32.504873	-12.291222	-35.004099	10.260562	-2.213924	11.096639	-9.849903	1.602012	-10.626335	37.900750	-6.294128	-5.324615	-20.425786	-20.927999	-46.023146
33	0.5624110486891386	8.947778	-59.402587	-28.480246	11.963231	-48.998221	9.859892	-24.355564	-59.499410	-1.208483	23.017503	-21.991832	9.879746	-39.566154	-22.210193	-14.452111	37.333745	-7.106528	0.493728	-32.574245	-12.260671	-35.269535	10.248250	-2.241896	11.102701	-9.839420	1.633717	-10.630684	38.004998	-6.044359	-4.662094	-20.584172	-20.757676	-46.251914
34	0.5794538077403246	8.936732	-59.456498	-25.390020	11.958075	-48.889887	12.571501	-24.393740	-59.452140	1.624665	22.891345	-21.676368	12.376399	-39.580435	-22.123019	-11.731973	37.333668	-6.790031	3.647832	-32.659772	-11.970692	-32.454418	10.262936	-2.237313	11.102829	-9.852945	1.629201	-10.631087	38.054892	-5.748647	-1.381568	-20.701442	-20.299605	-43.300998
35	0.5964965667915106	8.994881	-59.475953	-24.244288	11.954044	-48.887962	13.843628	-24.417978	-59.500645	2.764359	22.884083	-21.636945	14.085717	-39.601170	-22.125393	-10.727864	37.480210	-6.708724	6.381311	-32.686918	-11.983612	-31.721941	10.262679	-2.235106	11.100435	-9.852431	1.627215	-10.629070	38.407708	-5.633833	1.564186	-20.738133	-20.316669	-42.606642
36	0.6135393258426967	9.090347	-59.471908	-24.260784	12.025482	-48.839319	13.626532	-24.446280	-59.489682	2.634749	23.163268	-21.634947	13.461944	-39.628911	-22.168606	-11.172090	37.559088	-6.707252	5.106423	-32.767314	-12.031997	-32.699932	10.255551	-2.241219	11.107383	-9.846963	1.632307	-10.635325	38.399166	-5.622103	0.055086	-20.800673	-20.324124	-43.757310
37	0.6305820848938827	9.183350	-59.486457	-24.062130	12.106314	-48.848377	13.668534	-24.411183	-59.487797	2.681795	23.304241	-21.711118	13.480507	-39.651116	-22.193971	-11.150080	37.574502	-6.697384	5.115227	-32.826671	-12.082950	-32.663405	10.253524	-2.241450	11.109044	-9.844654	1.632620	-10.638131	38.388959	-5.507410	0.062720	-20.885303	-20.356045	-43.722867
38	0.6476248439450687	9.708705	-59.483419	-24.035788	12.397401	-48.966430	13.695770	-24.008991	-59.602947	2.697347	23.449445	-21.949578	13.548597	-39.480797	-22.420401	-11.081787	37.618194	-7.096513	5.139648	-32.696252	-12.330164	-32.397664	10.250088	-2.239737	11.120372	-9.841209	1.631590	-10.652651	38.392302	-5.964125	0.095261	-20.646511	-20.573604	-43.453206
39	0.6646676029962547	9.655144	-59.225302	-28.707706	12.463941	-48.932734	9.129686	-23.996731	-59.546217	-0.953419	23.469165	-21.937641	8.603205	-39.504428	-22.415399	-14.253559	37.618210	-7.012601	-0.843073	-32.678691	-12.343345	-35.266172	10.243637	-2.258138	11.126742	-9.836257	1.654621	-10.659644	38.378004	-5.862596	-6.056817	-20.503066	-20.606091	-46.374358
40	0.6817103620474407	9.846211	-59.325991	-28.770662	12.460284	-49.233869	9.276115	-23.824446	-59.653283	-1.404408	23.253856	-22.156305	9.246643	-39.414835	-22.488278	-14.243693	37.601379	-7.406122	-0.641312	-32.729546	-12.607478	-35.126478	10.230026	-2.261624	11.143775	-9.823669	1.659809	-10.679820	38.410969	-6.520872	-5.436150	-20.556888	-21.049205	-46.206130
